# xmcd
#
# Track frame offsets:
#	150
#	18978
#	37569
#	52552
#	67750
#
# Disc length: 1117 seconds
#
# Revision: 1
# Processed by: cddbd v1.5.2PL0 Copyright (c) Steve Scherf et al.
# Submitted via: audiograbber 1.83.01
#
DISCID=24045b05
DTITLE=Alabama - Alabama Christmas
DYEAR=1990
DGENRE=Christmas
TTITLE0=Santa Claus (I Still Believe in You)
TTITLE1=Joseph and Mary's Boy
TTITLE2=Happy Holiday's
TTITLE3=Christmas Memories
TTITLE4=Tonight Is Christmas
EXTD=
EXTT0=
EXTT1=
EXTT2=
EXTT3=
EXTT4=
PLAYORDER=
